{"title":"The Gaffer (1981) COMPLETE SERIES","uid":8929270,"size":5876393723,"categoryP":"video","categoryS":"tv_shows","magnet":"?xt=urn:btih:a0d9bcd42453d9331956f029a27321d3e598e434&amp;dn=The+Gaffer+%281981%29+COMPLETE+SERIES&amp;tr=udp%3A%2F%2Ftracker.openbittorrent.com%3A80&amp;tr=udp%3A%2F%2Fopen.demonii.com%3A1337&amp;tr=udp%3A%2F%2Ftracker.coppersurfer.tk%3A6969&amp;tr=udp%3A%2F%2Fexodus.desync.com%3A6969","seeders":0,"leechers":8,"uploader":"infidelwarez","files":20,"time":1379437645,"description":"Fred Moffatt is a survivor - just. Bearded, wearing a battered hat and a crumpled suit, his car a rusting wreck, he runs a struggling engineering firm and is constantly trying to avoid his creditors, the tax man, the bank manager, and indeed anyone who might want him to pay for something. The series' background accurately reflected the precarious condition of many small businesses of the era and added a dark undercurrent to the comedy. The scripts for The Gaffer were wordy and sardonic and the plots relatively complex, with Moffatt usually managing to outwit at least some of the people who were chasing him for money.\n\n\n/The Gaffer/The Gaffer Season 1/The Gaffer S01E01 All in a Day's Strike.mp4\nFormat                                   : MPEG-4\nFormat profile                           : Base Media / Version 2\nCodec ID                                 : mp42\nFile size                                : 261 MiB\nDuration                                 : 25mn 30s\nOverall bit rate mode                    : Variable\nOverall bit rate                         : 1 433 Kbps\nWriting application                      : HandBrake 0.9.9 2013051800\n\nVideo\nID                                       : 1\nFormat                                   : AVC\nFormat/Info                              : Advanced Video Codec\nFormat profile                           : &lt;a class=&quot;__cf_email__&quot; href=&quot;/cdn-cgi/l/email-protection&quot; data-cfemail=&quot;440c2d232c0408776a75&quot;&gt;[email&amp;#160;protected]&lt;/a&gt;&lt;script cf-hash='f9e31' type=&quot;text/javascript&quot;&gt;\n/* &lt;![CDATA[ */!function(){try{var t=&quot;currentScript&quot;in document?document.currentScript:function(){for(var t=document.getElementsByTagName(&quot;script&quot;),e=t.length;e--;)if(t[e].getAttribute(&quot;cf-hash&quot;))return t[e]}();if(t&amp;&amp;t.previousSibling){var e,r,n,i,c=t.previousSibling,a=c.getAttribute(&quot;data-cfemail&quot;);if(a){for(e=&quot;&quot;,r=parseInt(a.substr(0,2),16),n=2;a.length-n;n+=2)i=parseInt(a.substr(n,2),16)^r,e+=String.fromCharCode(i);e=document.createTextNode(e),c.parentNode.replaceChild(e,c)}}}catch(u){}}();/* ]]&gt; */&lt;/script&gt;\nFormat settings, CABAC                   : Yes\nFormat settings, ReFrames                : 4 frames\nCodec ID                                 : avc1\nCodec ID/Info                            : Advanced Video Coding\nDuration                                 : 25mn 30s\nDuration_LastFrame                       : -7ms\nBit rate mode                            : Variable\nBit rate                                 : 1 275 Kbps\nWidth                                    : 700 pixels\nHeight                                   : 576 pixels\nDisplay aspect ratio                     : 1.297\nOriginal display aspect ratio            : 1.296\nFrame rate mode                          : Constant\nFrame rate                               : 25.000 fps\nColor space                              : YUV\nChroma subsampling                       : 4:2:0\nBit depth                                : 8 bits\nScan type                                : Progressive\nBits/(Pixel*Frame)                       : 0.126\nStream size                              : 233 MiB (89%)\nWriting library                          : x264 core 130 r2273 b3065e6\nColor primaries                          : BT.601 PAL\nTransfer characteristics                 : BT.709\nMatrix coefficients                      : BT.601\n\nAudio\nID                                       : 2\nFormat                                   : AAC\nFormat/Info                              : Advanced Audio Codec\nFormat profile                           : LC\nCodec ID                                 : 40\nDuration                                 : 25mn 30s\nSource duration                          : 25mn 30s\nBit rate mode                            : Variable\nBit rate                                 : 154 Kbps\nMaximum bit rate                         : 228 Kbps\nChannel(s)                               : 2 channels\nChannel positions                        : Front: L R\nSampling rate                            : 44.1 KHz\nCompression mode                         : Lossy\nDelay relative to video                  : 80ms\nStream size                              : 28.0 MiB (11%)\n\n\n","torrent":{"xt":"urn:btih:a0d9bcd42453d9331956f029a27321d3e598e434","amp;dn":"The+Gaffer+%281981%29+COMPLETE+SERIES","amp;tr":["udp%3A%2F%2Ftracker.openbittorrent.com%3A80","udp%3A%2F%2Fopen.demonii.com%3A1337","udp%3A%2F%2Ftracker.coppersurfer.tk%3A6969","udp%3A%2F%2Fexodus.desync.com%3A6969"],"infoHash":"a0d9bcd42453d9331956f029a27321d3e598e434","infoHashBuffer":{"type":"Buffer","data":[160,217,188,212,36,83,217,51,25,86,240,41,162,115,33,211,229,152,228,52]},"announce":[],"urlList":[]}}